<?xml version="1.0" encoding="utf-8"?>
<!-- Generator: Adobe Illustrator 22.0.1, SVG Export Plug-In . SVG Version: 6.00 Build 0)  -->
<svg version="1.1" id="Layer_1" xmlns="http://www.w3.org/2000/svg" xmlns:xlink="http://www.w3.org/1999/xlink" x="0px" y="0px"
	 viewBox="0 0 100 100" style="enable-background:new 0 0 100 100;" xml:space="preserve">
<style type="text/css">
	.st0{fill:#2980B9;}
</style>
<path class="st0" d="M53.8,10.4c0,0-35.6-1.9-35.6,33.4c0,0,0,13.8,11.8,24.3L33.9,88h34.6l3.3-19.4c0,0,12.3-10,12.3-24.7
	C84.1,29.1,76.9,13.7,53.8,10.4z M67.5,66.2l-3.1,17H37.8l-3.1-17c-11-9.3-11.9-22.4-11.9-22.4c0.3-26.5,25-28.4,25-28.4h6.7
	c27.3,4.7,24.8,28.4,24.8,28.4C77.8,59.3,67.5,66.2,67.5,66.2z"/>
<path class="st0" d="M46.2,42.8l-17.7-6.1c0,0-2.6,4-2.1,8.2s3,8.1,7,9.1s5.2,0.5,5.2,0.5s3.7-1.1,4.7-2.7
	C44.3,50.3,47.1,47,46.2,42.8z"/>
<path class="st0" d="M56.3,42.8L74,36.7c0,0,2.6,4,2.1,8.2c-0.5,4.2-3,8.1-7,9.1c-4,0.9-5.2,0.5-5.2,0.5s-3.7-1.1-4.7-2.7
	C58.2,50.3,55.4,47,56.3,42.8z"/>
<path class="st0" d="M47.1,58.6c0,0-0.1-7.4,4.1-10.5c0,0,4,3.7,4.1,10.5H47.1z"/>
<rect x="39.2" y="64.8" class="st0" width="2.8" height="4.7"/>
<rect x="43.6" y="64.8" class="st0" width="2.8" height="4.7"/>
<rect x="47.7" y="64.8" class="st0" width="2.8" height="4.7"/>
<rect x="52.2" y="64.8" class="st0" width="2.8" height="4.7"/>
<rect x="56.1" y="64.8" class="st0" width="2.8" height="4.7"/>
<rect x="60.5" y="64.8" class="st0" width="2.8" height="4.7"/>
<rect x="39.2" y="72.2" class="st0" width="2.8" height="4.7"/>
<rect x="43.6" y="72.2" class="st0" width="2.8" height="4.7"/>
<rect x="47.7" y="72.2" class="st0" width="2.8" height="4.7"/>
<rect x="52.2" y="72.2" class="st0" width="2.8" height="4.7"/>
<rect x="56.1" y="72.2" class="st0" width="2.8" height="4.7"/>
<rect x="60.5" y="72.2" class="st0" width="2.8" height="4.7"/>
</svg>
