<?xml version="1.0" encoding="utf-8"?>
<!-- Generator: Adobe Illustrator 22.0.1, SVG Export Plug-In . SVG Version: 6.00 Build 0)  -->
<svg version="1.1" id="Layer_1" xmlns="http://www.w3.org/2000/svg" xmlns:xlink="http://www.w3.org/1999/xlink" x="0px" y="0px"
	 viewBox="0 0 100 100" style="enable-background:new 0 0 100 100;" xml:space="preserve">
<style type="text/css">
	.st0{fill:#2980B9;}
	.st1{fill:none;}
</style>
<g>
	<path class="st0" d="M94.8,35.6c-0.2-2.5-0.9-3.1-2.8-5.6c-1.9-2.5-6.2-2.5-6.2-2.5s-7.3,0-10.4,0.1c-3.1,0.1-4.1-3.5-4.1-3.5
		s-1.3-4.3-2.4-7.2c-1-2.9-4.1-2.8-4.1-2.8s-26.9-0.2-30.3,0c-3.4,0.1-4.1,5.7-5.6,9.7c-1.5,4-3.5,3.6-3.5,3.6l-10.9,0
		c0,0-2.9-0.4-6.3,2.3c-3.4,2.8-3.1,7.3-3.1,7.3s0,33.6,0,38.5c0,4.9,1.8,6,3.5,8.2c1.8,2.2,7.6,1.9,7.6,1.9l71.5,0
		c0,0,2.5-0.8,4.7-3.1c2.2-2.3,2.2-5.9,2.2-5.9S94.9,38.1,94.8,35.6z M50.2,77C37.7,77,27.6,67,27.6,54.5S37.7,32,50.2,32
		C62.6,32,72.7,42,72.7,54.5S62.6,77,50.2,77z"/>
	<path class="st1" d="M50.2,32C37.7,32,27.6,42,27.6,54.5S37.7,77,50.2,77C62.6,77,72.7,67,72.7,54.5S62.6,32,50.2,32z M50.2,67.7
		c-7.4,0-13.4-6-13.4-13.4c0-7.4,6-13.4,13.4-13.4c7.4,0,13.4,6,13.4,13.4C63.6,61.7,57.6,67.7,50.2,67.7z"/>
	
		<ellipse transform="matrix(0.7071 -0.7071 0.7071 0.7071 -23.6761 51.3609)" class="st0" cx="50.2" cy="54.3" rx="13.4" ry="13.4"/>
</g>
</svg>
